<svg id="Layer_1" data-name="Layer 1" xmlns="http://www.w3.org/2000/svg" xmlns:xlink="http://www.w3.org/1999/xlink" viewBox="0 0 406.31 406.31"><defs><style>.cls-1{fill:none;}.cls-2{clip-path:url(#clip-path);}.cls-3{fill:url(#linear-gradient);}.cls-4{fill:#00bf76;}.cls-5{fill:#0a9f6e;}.cls-6{fill:url(#linear-gradient-2);}.cls-7{fill:url(#linear-gradient-3);}</style><clipPath id="clip-path"><circle class="cls-1" cx="203.16" cy="203.16" r="203.16"/></clipPath><linearGradient id="linear-gradient" x1="0.93" y1="203.16" x2="405.38" y2="203.16" gradientUnits="userSpaceOnUse"><stop offset="0" stop-color="#32b97b"/><stop offset="1" stop-color="#0a9f6e"/></linearGradient><linearGradient id="linear-gradient-2" x1="68.8" y1="203.16" x2="337.51" y2="203.16" gradientUnits="userSpaceOnUse"><stop offset="0" stop-color="#fff"/><stop offset="0.85" stop-color="#fff"/><stop offset="1" stop-color="#fff"/></linearGradient><linearGradient id="linear-gradient-3" x1="157.39" y1="302.73" x2="189.09" y2="302.73" xlink:href="#linear-gradient-2"/></defs><g class="cls-2"><circle class="cls-3" cx="203.16" cy="203.16" r="202.22"/><circle class="cls-4" cx="203.29" cy="203.29" r="202"/><path class="cls-5" d="M160.89,302.76l100.93,94s41.9-7.1,85.3-51.58c52.73-54,56.75-110.4,56.75-110.4l1.45-26.47-74.78-83.36Z"/><path class="cls-6" d="M336.13,133c3.56,11.45,0,20.5-8.38,28.79q-56.91,56.15-113.36,112.76-11.32,11.29-22.34,22.87c-7.63,8-16.52,10.8-27.19,7.36a7.77,7.77,0,0,0-1.94-.12c-2-1.85-5-4.6-8.59-8-14.42-13.53-21.58-21.11-29.77-29.19-9.25-9.15-30.06-30.94-47.58-48.25-8.87-8.76-10.54-19.87-4.92-29.87A29.18,29.18,0,0,1,77,183.24q7.66-7.71,15.37-15.37c11.34-11.24,25.39-11.24,36.61,0,13.75,13.81,27.53,27.6,41.13,41.56,2.39,2.45,3.57,2.57,6.07.06q50.55-50.6,101.31-101c9.05-9,20.15-10.94,30.15-5.26a26.43,26.43,0,0,1,5.31,4.06c5.94,5.8,11.76,11.71,17.62,17.58A37.76,37.76,0,0,1,336.13,133Z"/></g><path class="cls-7" d="M157.39,299.55l8.34,7.72s6.91,5.64,20.64-5S157.39,299.55,157.39,299.55Z"/></svg>